PathFileType  4	(X/Y/Z) C:\Users\antoi\Documents\MyRepositories\mobilecap\ResultsAnalysis
DataRate	CameraRate	NumFrames	NumMarkers	Units	OrigDataRate	OrigDataStartFrame	OrigNumFrames
100.0	100.0	5	51	mm	100.0	34	270
Frame#	Time	r_knee			r_shank_antsup			r_ankle			r_calc			r_5meta			r_toe			L_knee			L_shank_antsup			L_ankle			L_calc			L_5meta			L_toe			r_sh2			r_sh3			r_sh4			L_sh2			L_sh3			r_thigh1			r_thigh2			r_thigh3			r_thigh4			r_thigh5			L_thigh1			L_thigh2			L_thigh3			L_thigh4			r.ASIS			r.PSIS			L.ASIS			L.PSIS			C7			R_Shoulder			L_Shoulder			R_Sternum			L_Sternum			R_humerus			R_elbow_med			R_elbow_lat			R_forearm			R_wrist_radius			R_wrist_ulna			L_humerus			L_elbow_med			L_elbow_lat			L_forearm			L_wrist_radius			L_wrist_ulna			R_HJC			L_HJC			R_HJC_reg			L_HJC_reg			
		X1	Y1	Z1	X2	Y2	Z2	X3	Y3	Z3	X4	Y4	Z4	X5	Y5	Z5	X6	Y6	Z6	X7	Y7	Z7	X8	Y8	Z8	X9	Y9	Z9	X10	Y10	Z10	X11	Y11	Z11	X12	Y12	Z12	X13	Y13	Z13	X14	Y14	Z14	X15	Y15	Z15	X16	Y16	Z16	X17	Y17	Z17	X18	Y18	Z18	X19	Y19	Z19	X20	Y20	Z20	X21	Y21	Z21	X22	Y22	Z22	X23	Y23	Z23	X24	Y24	Z24	X25	Y25	Z25	X26	Y26	Z26	X27	Y27	Z27	X28	Y28	Z28	X29	Y29	Z29	X30	Y30	Z30	X31	Y31	Z31	X32	Y32	Z32	X33	Y33	Z33	X34	Y34	Z34	X35	Y35	Z35	X36	Y36	Z36	X37	Y37	Z37	X38	Y38	Z38	X39	Y39	Z39	X40	Y40	Z40	X41	Y41	Z41	X42	Y42	Z42	X43	Y43	Z43	X44	Y44	Z44	X45	Y45	Z45	X46	Y46	Z46	X47	Y47	Z47	X48	Y48	Z48	X49	Y49	Z49	X50	Y50	Z50	X51	Y51	Z51	

34	0.33000000	-1156.91563	837.20248	-449.91242	-1142.42279	752.37748	-431.31820	-1276.18459	411.98247	-450.01293	-1334.74134	358.38803	-497.57765	-1138.05418	353.86564	-402.89726	-1101.02367	379.76393	-461.16772	-1140.69437	827.17808	-748.54524	-1130.90840	705.39958	-760.20009	-1265.37546	407.20604	-752.07357	-1337.15726	359.32402	-715.40811	-1118.20179	343.67737	-784.83386	-1094.17006	370.15943	-721.08219	-1173.97677	643.37465	-425.36094	-1213.86176	772.21119	-420.54544	-1253.50482	662.80265	-418.36584	-1211.78574	737.08119	-784.73685	-1242.14017	617.30141	-782.49856	-1154.77433	1159.10765	-422.30778	-1121.53333	1054.23377	-433.02472	-1165.38893	1011.07977	-409.57424	-1261.80579	1119.38502	-425.43188	-1218.86357	1010.94849	-422.86021	-1131.99713	1155.26171	-775.02818	-1095.32873	1022.92452	-765.40045	-1251.16950	1118.95222	-780.83731	-1200.06722	989.42369	-781.54937	-1159.53097	1333.37292	-471.87437	-1338.28114	1403.59463	-563.11319	-1142.27281	1322.93443	-730.94857	-1330.95611	1398.62290	-671.22173	-1189.23942	1901.98743	-632.47004	-1170.09633	1872.67275	-456.90203	-1119.98608	1856.67131	-782.44127	-1069.43366	1797.44290	-579.00044	-1064.22261	1789.83807	-636.84713	-1320.32799	1663.33775	-348.75632	-1389.69369	1581.90295	-418.59773	-1383.35916	1598.11910	-332.01871	-1358.68873	1441.17957	-295.82370	-1347.19702	1325.68450	-293.27763	-1385.38060	1337.34831	-272.31911	-1248.30116	1659.98831	-905.07747	-1347.17921	1603.04494	-866.50604	-1317.16672	1602.80392	-929.82759	-1299.31048	1428.14637	-955.60464	-1286.64815	1327.47269	-945.80122	-1317.03577	1332.54864	-972.59976	-1256.55514	1270.57949	-483.36985	-1238.69246	1261.06201	-712.84706	-1243.54694	1271.31811	-511.70897	-1231.96687	1263.45682	-682.64281	
35	0.34000000	-1153.60585	836.07827	-449.84937	-1139.39177	750.97042	-431.21730	-1276.12192	411.98366	-449.57560	-1334.93898	358.16773	-497.45605	-1137.99937	354.39806	-402.96430	-1101.26065	380.66323	-461.18557	-1137.46313	825.96339	-747.54609	-1128.25446	704.37391	-759.49201	-1264.99742	407.49611	-752.05555	-1337.01273	359.40953	-715.30609	-1118.14395	343.76468	-784.66567	-1094.08426	370.15012	-720.93907	-1171.85625	642.34558	-425.32092	-1210.49285	771.57171	-420.08213	-1251.25808	662.50320	-417.81341	-1208.91097	736.60370	-783.80917	-1240.23615	617.21583	-781.72584	-1154.55610	1157.74077	-422.37933	-1120.25003	1053.49167	-433.18745	-1163.38807	1009.76892	-409.32161	-1261.00636	1117.27924	-424.42882	-1217.01324	1008.97858	-422.44432	-1132.12002	1153.92347	-774.09873	-1093.91980	1021.95579	-764.31488	-1250.74554	1116.22299	-780.04938	-1198.23253	987.44267	-780.74153	-1160.71264	1330.90721	-471.46149	-1338.59162	1401.94865	-562.82549	-1143.65985	1320.35001	-729.93996	-1331.97529	1396.78709	-670.46853	-1183.07413	1899.05881	-631.36801	-1163.49653	1870.00642	-455.81882	-1113.83938	1853.09275	-781.55530	-1064.54899	1793.27462	-577.33260	-1059.45700	1785.37656	-635.91866	-1320.98037	1666.37735	-347.76979	-1392.65913	1586.92816	-417.83179	-1386.33805	1603.34840	-331.12223	-1366.02149	1445.80121	-294.55165	-1357.41726	1330.01831	-291.76855	-1395.52312	1342.71724	-271.10452	-1248.54972	1661.56578	-904.89438	-1349.07924	1608.07686	-866.72024	-1319.23747	1607.22743	-930.26998	-1307.82242	1432.19101	-957.41475	-1298.68066	1330.98399	-948.10095	-1328.93829	1337.37144	-974.97537	-1257.95573	1268.61603	-482.67539	-1240.20549	1258.82776	-712.14968	-1244.58144	1269.75407	-510.56402	-1234.09694	1261.57361	-681.15564	
36	0.35000000	-1150.29440	834.76105	-450.11090	-1136.29651	749.53208	-431.04099	-1276.26104	411.95627	-449.21367	-1335.17045	357.91184	-497.28981	-1138.04152	355.11654	-403.21624	-1101.58443	381.77702	-461.22239	-1134.12514	824.69101	-746.61999	-1125.60419	703.25358	-758.80379	-1264.85683	407.71309	-751.78151	-1337.13367	359.41852	-715.01568	-1118.08750	343.91710	-784.52713	-1094.07318	370.19052	-720.79273	-1169.79547	641.21651	-425.35401	-1207.17595	770.84981	-419.57804	-1249.01046	662.19400	-417.22169	-1206.06900	736.21512	-782.91408	-1238.29518	617.11136	-780.82178	-1154.47698	1156.22447	-422.49253	-1118.84757	1052.50142	-433.30127	-1161.51960	1008.39757	-408.93025	-1260.37187	1115.01185	-423.42032	-1215.19755	1006.77919	-421.94571	-1132.56887	1152.55062	-773.53819	-1092.52924	1020.95391	-763.20291	-1250.50017	1113.40436	-779.13429	-1196.45309	985.28074	-779.65885	-1161.93632	1328.39611	-470.99790	-1338.93025	1400.25477	-562.43612	-1145.14338	1317.63893	-728.91930	-1332.91701	1394.84648	-669.94109	-1176.65219	1895.83257	-630.16892	-1156.54317	1866.86164	-454.57005	-1107.50772	1849.05761	-780.42890	-1059.56037	1788.37452	-575.99736	-1054.48954	1780.51678	-634.89594	-1321.47448	1669.65937	-346.55479	-1395.39104	1592.21163	-417.08011	-1389.18396	1608.77465	-330.32874	-1373.13118	1450.75524	-293.38007	-1367.15842	1334.76254	-290.26558	-1405.22669	1348.55116	-269.97208	-1248.60210	1663.27088	-904.82462	-1350.82160	1613.23515	-866.70374	-1321.29977	1611.75534	-930.32635	-1316.36458	1436.53268	-958.89480	-1310.62659	1334.92830	-949.93852	-1340.77265	1342.56769	-976.91097	-1259.42112	1266.62991	-481.95958	-1241.75655	1256.47159	-711.42453	-1245.74283	1268.13535	-509.42614	-1236.21799	1259.57117	-679.68152	
37	0.36000000	-1146.96866	833.52799	-450.15916	-1133.31293	748.08255	-430.92864	-1276.59351	411.85804	-449.12058	-1335.46015	357.62450	-497.11506	-1138.17240	355.97153	-403.60264	-1101.95268	382.86275	-461.48208	-1130.71878	823.28912	-745.42221	-1122.96735	702.10031	-757.97747	-1264.84296	407.81203	-751.28189	-1337.12913	359.44078	-714.78006	-1118.03804	344.13837	-784.41746	-1094.05925	370.30226	-720.65346	-1167.94387	640.04335	-425.42973	-1204.10223	770.28459	-419.16634	-1246.87369	661.87409	-416.72200	-1203.23258	735.85355	-781.76519	-1236.38606	617.03438	-779.99220	-1154.42570	1154.76822	-422.19597	-1117.72208	1051.23939	-433.15873	-1159.91184	1006.89913	-408.43775	-1259.93297	1112.45761	-422.51320	-1213.50849	1004.69562	-421.10187	-1133.18094	1151.24362	-772.77442	-1091.16456	1019.91330	-762.01460	-1250.44551	1110.58513	-778.05066	-1194.62327	982.98376	-778.70123	-1163.22631	1325.72320	-470.37999	-1339.31401	1398.53230	-561.82435	-1146.74831	1314.79917	-728.08775	-1333.89086	1392.81421	-669.44954	-1169.98180	1892.31859	-628.88039	-1149.21771	1863.19552	-453.07626	-1100.95795	1844.54870	-779.16242	-1054.48680	1782.83962	-574.94230	-1049.37823	1775.24817	-633.63578	-1321.76073	1672.79954	-345.37536	-1397.89578	1597.65382	-416.41497	-1391.84278	1614.44033	-329.47646	-1379.82443	1456.12380	-292.17484	-1376.30724	1339.89564	-288.80596	-1414.31132	1354.72009	-268.89577	-1248.51630	1664.99622	-904.60324	-1352.37488	1618.46345	-866.35995	-1323.29912	1616.40667	-930.21315	-1324.93461	1441.09720	-959.98124	-1322.41296	1339.22112	-951.18070	-1352.54717	1347.88856	-978.04468	-1260.95325	1264.53100	-481.21494	-1243.46771	1254.03108	-710.67836	-1247.08186	1266.40923	-508.17221	-1238.50864	1257.37049	-678.30294	
38	0.37000000	-1143.91220	832.37386	-450.04350	-1130.60540	746.60925	-431.10413	-1276.86167	411.64492	-449.18552	-1335.81190	357.30007	-496.96139	-1138.21080	356.70486	-404.01016	-1102.25082	383.67143	-462.01380	-1127.30874	821.79004	-743.95997	-1120.30539	700.98360	-757.04265	-1264.67139	407.82344	-750.83610	-1336.94151	359.53171	-714.71066	-1118.02242	344.41576	-784.25688	-1094.04395	370.48474	-720.45840	-1166.18483	638.86621	-425.73101	-1201.36519	770.08269	-418.87585	-1244.81825	661.49030	-416.37442	-1200.35209	735.50660	-780.45878	-1234.54421	617.07314	-779.36273	-1154.32983	1153.05870	-421.76098	-1116.91999	1049.85492	-432.89562	-1158.48736	1005.16854	-407.94058	-1259.60673	1109.70747	-421.64835	-1212.01628	1002.70254	-420.04861	-1133.52292	1149.61159	-771.82507	-1089.86483	1018.81038	-760.80908	-1250.31589	1107.58294	-777.04253	-1192.75842	980.57999	-777.79448	-1164.57782	1322.84927	-469.65099	-1340.01984	1396.71346	-560.95088	-1148.49589	1311.72743	-727.32138	-1335.03111	1390.60406	-668.54684	-1163.07819	1888.46122	-627.58741	-1141.63137	1858.99391	-451.49964	-1094.03525	1839.74724	-778.56148	-1049.19279	1777.04157	-573.58387	-1044.17772	1769.57946	-632.41873	-1321.75254	1675.63617	-344.58546	-1400.16565	1603.15373	-415.78943	-1394.17761	1620.25144	-328.55091	-1385.95797	1461.76110	-291.00448	-1384.83440	1345.28275	-287.59076	-1422.62813	1361.09675	-267.86414	-1248.31758	1666.62435	-904.16292	-1353.73514	1623.70393	-865.62084	-1325.11918	1621.17875	-930.06644	-1333.32848	1445.92910	-960.62508	-1333.75911	1343.95933	-951.91127	-1364.08854	1353.30320	-978.24547	-1262.56132	1262.24384	-480.28927	-1245.45184	1251.42979	-709.76613	-1248.70795	1264.51558	-506.93831	-1240.82253	1254.85550	-677.03269	
